<svg width="200" height="200" viewBox="0 0 200 200" fill="none" xmlns="http://www.w3.org/2000/svg">
  <path d="M60 80C60 60 75 45 95 45C115 45 130 60 130 80" stroke="#2563EB" stroke-width="3"/>
  <circle cx="95" cy="60" r="20" fill="#2563EB"/>
  <path d="M75 75C75 65 85 55 95 55C105 55 115 65 115 75" fill="#FFF"/>
  <circle cx="85" cy="65" r="3" fill="#000"/>
  <circle cx="105" cy="65" r="3" fill="#000"/>
  <path d="M90 70Q95 75 100 70" stroke="#000" stroke-width="2" fill="none"/>
  <path d="M40 140C40 110 65 90 95 90C125 90 150 110 150 140" fill="#2563EB"/>
  <rect x="70" y="110" width="50" height="60" fill="#FFF"/>
  <path d="M80 120L110 120M80 130L110 130M80 140L110 140" stroke="#2563EB" stroke-width="2"/>
</svg>